<svg id="Capa_1" enable-background="new 0 0 512 512" viewBox="0 0 512 512" width="18" xmlns="http://www.w3.org/2000/svg"><g><path d="m512 256c0 141.385-114.615 256-256 256s-256-114.615-256-256c0-14.029 1.129-27.794 3.3-41.21 41.309-17.143 37.259-80.469 64.314-115.29 25.688-33.061 83.347-36.91 90.328-80.048 30.202-12.534 63.322-19.452 98.058-19.452 141.385 0 256 114.615 256 256z" fill="#2b3894"/><path d="m480 279c0 93.336-75.664 169-169 169s-169-75.664-169-169 75.664-169 169-169 169 75.664 169 169z" fill="#3342ae"/><path d="m280.925 294.247 14.243 7.79c1.161.635 1.161 2.303 0 2.939l-14.243 7.79c-.281.154-.512.385-.666.666l-7.79 14.243c-.635 1.161-2.303 1.161-2.939 0l-7.79-14.243c-.154-.281-.385-.512-.666-.666l-14.243-7.79c-1.161-.635-1.161-2.303 0-2.939l14.243-7.79c.281-.154.512-.385.666-.666l7.79-14.243c.635-1.161 2.303-1.161 2.939 0l7.79 14.243c.154.281.385.512.666.666zm-102.635-61.932-7.79-14.243c-.635-1.161-2.303-1.161-2.939 0l-7.79 14.243c-.154.281-.385.512-.666.666l-14.243 7.79c-1.161.635-1.161 2.303 0 2.939l14.243 7.79c.281.154.512.385.666.666l7.79 14.243c.635 1.161 2.303 1.161 2.939 0l7.79-14.243c.154-.281.385-.512.666-.666l14.243-7.79c1.161-.635 1.161-2.303 0-2.939l-14.243-7.79c-.281-.154-.512-.385-.666-.666z" fill="#07a9f0"/><path d="m226.005 35.053c-29.172 14.02-55.139 33.647-76.504 57.484-16.764 1.235-32.933 6.3-46.381 15.403-35.621 24.112-41.963 69.013-17.857 126.434.66 1.573 1.429 3.2 2.301 4.875-.374 5.536-.564 11.121-.564 16.751 0 43.654 11.417 84.642 31.429 120.139-4.101-3.494-8.129-6.994-12.064-10.484-45.219-40.109-74.368-75.265-86.638-104.49-2.147-5.113-11.163-26.18-17.246-40.942 13.136-93.939 77.252-171.54 163.487-203.943 21.863 5.811 49.863 14.722 60.037 18.773z" fill="#d12898"/><path d="m373.615 152.319c2.778 2.778 1.414 7.528-2.415 8.408l-24.989 5.746c-7.464 1.716-13.293 7.545-15.009 15.009l-5.746 24.99c-.88 3.829-5.63 5.193-8.408 2.415l-72.319-72.319s-60.202-44.331-87.05-44.331c-10.742 0-21.382 1.534-31.375 4.655 24.074-28.164 54.422-50.803 88.88-65.754 14.46 4.714 28.194 11.206 40.818 19.307 1.289-.827 7.981 3.122 15.842 8.381 16.958 11.346 32.697 24.416 47.125 38.843zm-115.013 236.455-.133.083c-1.506.938-3.412.949-4.918.011-66.231-41.246-151.642-114.846-168.287-154.495-5.074-12.086-8.799-23.618-11.186-34.518-4.227 18.029-6.463 36.825-6.463 56.144 0 31.535 5.958 61.679 16.81 89.367 6.833 6.612 14.148 13.376 21.94 20.288 33.941 30.106 74.801 60.908 109.299 82.394 12.252 7.631 26.295 11.446 40.338 11.446 2.563 0 5.126-.127 7.679-.381 4.153-.414 7.321-3.906 7.321-8.079v-55.378c-.002-6.364-6.999-10.248-12.4-6.882z" fill="#ff2ea6"/><path d="m300.135 139.863-26.604 25.509-28.804-28.804s-14.708-10.83-32.826-21.784c21.311-17.408 43.933-33.188 67.715-47.123.024-.014.043-.025.056-.033.85-.514 1.706-1.02 2.565-1.519 13.036 9.546 25.294 20.127 36.728 31.562l19.792 19.792c-14.352 4.641-27.722 12.155-38.622 22.4z" fill="#bc157d"/><path d="m492.273 261.165c-12.269 29.225-41.418 64.38-86.638 104.49-33.941 30.106-74.8 60.908-109.299 82.394-12.251 7.631-26.294 11.446-40.337 11.446v-69.939c.861 0 1.723-.234 2.474-.702 66.228-41.249 151.62-114.836 168.263-154.48 24.106-57.42 17.765-102.322-17.856-126.434-36.988-25.036-94.595-19.541-128.418 12.25l-99.167 95.082-10.575-45.992-45.993-10.576 26.538-26.538c32.529-32.529 68.988-60.921 108.679-84.178.024-.014.043-.025.056-.033 23.616-14.264 50.847-23.033 79.301-25.268 39.891-3.131 78.853 6.644 109.706 27.528 30.208 20.447 50.549 49.935 58.825 85.276 8.839 37.746 3.604 80.029-15.559 125.674z" fill="#ff50b5"/><path d="m290.177 429.343c-24.042 11.168-44.936 17.2-46.668 13.472-.908-1.956 12.425-26.238 24.667-36.943 12.242-10.706 24.36-16.876 27.066-13.783 2.706 3.094-5.025 14.281-17.267 24.987-1.651 1.444-3.3 2.806-4.924 4.073 3.435-1.767 7.071-3.547 10.856-5.305 24.042-11.168 44.936-17.199 46.668-13.472s-16.356 15.803-40.398 26.971z" fill="#ff2ea6"/><path d="m225.15 124.864c-17.311-16.131-15.284-44.217 4.265-57.549 9.946-6.783 20.127-13.231 30.529-19.327.024-.014.043-.025.056-.033 23.616-14.264 50.847-23.033 79.301-25.268 39.891-3.131 78.853 6.644 109.706 27.528 30.208 20.447 50.549 49.935 58.825 85.276 8.839 37.746 3.604 80.028-15.559 125.673-4.943 11.775-12.627 24.512-22.998 38.149-12.634 16.612-36.847 18.704-52.116 4.475-13.219-12.318-14.975-32.639-4.08-47.053 6.193-8.193 10.882-15.75 13.657-22.362 24.106-57.42 17.765-102.322-17.856-126.434-36.988-25.036-94.595-19.541-128.418 12.25l-4.497 4.312c-14.161 13.579-36.461 13.738-50.815.363z" fill="#ff72c3"/><path d="m431.925 120.764 14.243 7.79c1.161.635 1.161 2.303 0 2.939l-14.243 7.79c-.281.154-.512.385-.666.666l-7.79 14.243c-.635 1.161-2.303 1.161-2.939 0l-7.79-14.243c-.154-.281-.385-.512-.666-.666l-14.243-7.79c-1.161-.635-1.161-2.303 0-2.939l14.243-7.79c.281-.154.512-.385.666-.666l7.79-14.243c.635-1.161 2.303-1.161 2.939 0l7.79 14.243c.154.281.385.512.666.666zm-303.712 238.907-7.79-14.243c-.635-1.161-2.303-1.161-2.939 0l-7.79 14.243c-.154.281-.385.512-.666.666l-14.243 7.79c-1.161.635-1.161 2.303 0 2.939l14.243 7.79c.281.154.512.385.666.666l7.79 14.243c.635 1.161 2.303 1.161 2.939 0l7.79-14.243c.154-.281.385-.512.666-.666l14.243-7.79c1.161-.635 1.161-2.303 0-2.939l-14.243-7.79c-.281-.154-.512-.385-.666-.666z" fill="#fff5f5"/></g></svg>